<svg width="16" height="17" viewBox="0 0 16 17" fill="none" xmlns="http://www.w3.org/2000/svg">
<g id="Icon/Social/Instagram">
<path id="Combined Shape" fill-rule="evenodd" clip-rule="evenodd" d="M5 0.312744H11C13.761 0.312744 16 2.55174 16 5.31274V11.3127C16 14.0737 13.761 16.3127 11 16.3127H5C2.239 16.3127 0 14.0737 0 11.3127V5.31274C0 2.55174 2.239 0.312744 5 0.312744ZM11 14.8127C12.93 14.8127 14.5 13.2427 14.5 11.3127V5.31274C14.5 3.38274 12.93 1.81274 11 1.81274H5C3.07 1.81274 1.5 3.38274 1.5 5.31274V11.3127C1.5 13.2427 3.07 14.8127 5 14.8127H11ZM4 8.31274C4 6.10374 5.791 4.31274 8 4.31274C10.209 4.31274 12 6.10374 12 8.31274C12 10.5217 10.209 12.3127 8 12.3127C5.791 12.3127 4 10.5217 4 8.31274ZM5.5 8.31274C5.5 9.69074 6.622 10.8127 8 10.8127C9.378 10.8127 10.5 9.69074 10.5 8.31274C10.5 6.93374 9.378 5.81274 8 5.81274C6.622 5.81274 5.5 6.93374 5.5 8.31274ZM12.833 4.01275C12.833 4.30712 12.5944 4.54575 12.3 4.54575C12.0057 4.54575 11.767 4.30712 11.767 4.01275C11.767 3.71838 12.0057 3.47975 12.3 3.47975C12.5944 3.47975 12.833 3.71838 12.833 4.01275Z" fill="#B0B8BC"/>
</g>
</svg>
