<svg width="100" height="50" viewBox="0 0 100 50" fill="none" xmlns="http://www.w3.org/2000/svg">
<g id="Frame" clip-path="url(#clip0_0_21)">
<path id="Vector" d="M36.9857 47.361C34.6709 49.0901 31.9345 50.01 29.1354 50C25.5955 50.0207 22.1764 48.5865 19.5499 45.979C19.3453 45.7792 19.5499 45.5128 19.7621 45.6627C22.3091 47.275 25.1611 48.2185 28.0951 48.4192C31.029 48.6199 33.9655 48.0726 36.675 46.8199C37.0387 46.6534 37.3342 47.0779 36.9857 47.361Z" fill="black"/>
<path id="Vector_2" d="M37.8722 46.2537C37.5994 45.8708 36.0764 46.0706 35.3868 46.1622C35.1822 46.1622 35.1519 45.9957 35.3338 45.8458C36.5537 44.9134 38.5466 45.1798 38.7739 45.4962C39.0013 45.8125 38.7133 47.9937 37.5767 49.0509C37.4024 49.2091 37.2357 49.1259 37.3115 48.9177C37.5691 48.2101 38.1374 46.6367 37.8722 46.2537ZM35.4398 39.2274V38.3117C35.4388 38.2808 35.4435 38.2499 35.4538 38.2211C35.4641 38.1923 35.4797 38.1661 35.4996 38.1443C35.5195 38.1224 35.5434 38.1052 35.5696 38.0939C35.5958 38.0826 35.6239 38.0774 35.652 38.0786H39.3498C39.378 38.0774 39.406 38.0826 39.4323 38.0939C39.4585 38.1052 39.4823 38.1224 39.5022 38.1443C39.5221 38.1661 39.5377 38.1923 39.548 38.2211C39.5583 38.2499 39.5631 38.2808 39.562 38.3117V39.0942C39.562 39.2274 39.4635 39.3939 39.2816 39.6687L37.357 42.6906C38.0923 42.6435 38.8255 42.8161 39.4786 43.1901C39.5362 43.2247 39.5847 43.2751 39.6192 43.3364C39.6537 43.3977 39.6732 43.4678 39.6757 43.5398V44.5138C39.6757 44.647 39.5393 44.8052 39.4029 44.7219C38.7962 44.3774 38.1232 44.1976 37.4403 44.1976C36.7574 44.1976 36.0844 44.3774 35.4777 44.7219C35.3489 44.7969 35.2125 44.647 35.2125 44.5138V43.6147C35.1995 43.3962 35.247 43.1785 35.3489 42.9903L37.5919 39.4522H35.652C35.6245 39.4533 35.5971 39.4483 35.5714 39.4375C35.5457 39.4268 35.5222 39.4104 35.5024 39.3894C35.4826 39.3684 35.4669 39.3432 35.4561 39.3154C35.4454 39.2876 35.4398 39.2577 35.4398 39.2274ZM42.79 39.2691C41.9565 39.2691 41.9034 40.5178 41.9034 41.292C41.9034 42.0663 41.9034 43.7313 42.7824 43.7313C43.6614 43.7313 43.6993 42.3909 43.6993 41.5751C43.7158 41.0137 43.6571 40.4527 43.525 39.9101C43.4903 39.7227 43.3936 39.5561 43.2537 39.4424C43.1138 39.3286 42.9405 39.2758 42.7673 39.294L42.79 39.2691ZM42.79 37.962C44.4646 37.962 45.3739 39.5521 45.3739 41.5584C45.3739 43.5648 44.3737 45.0466 42.79 45.0466C41.2063 45.0466 40.244 43.4649 40.244 41.4918C40.244 39.5188 41.1533 37.962 42.79 37.962ZM33.6137 44.8968C33.5739 44.9241 33.528 44.9386 33.4811 44.9386C33.4342 44.9386 33.3882 44.9241 33.3485 44.8968C33.0908 44.6608 32.8706 44.3795 32.6968 44.0643C32.4747 44.3681 32.1895 44.6091 31.8652 44.767C31.5409 44.9248 31.1868 44.995 30.8327 44.9717C30.6008 44.9862 30.3688 44.9453 30.1526 44.8518C29.9364 44.7583 29.7413 44.6144 29.5807 44.43C29.42 44.2456 29.2977 44.0251 29.2222 43.7837C29.1466 43.5424 29.1196 43.2859 29.143 43.032C29.131 42.5987 29.2401 42.1719 29.4555 41.8088C29.6708 41.4456 29.9822 41.1636 30.3478 41.0007C31.036 40.7507 31.7527 40.6077 32.4771 40.5761C32.5111 40.214 32.4643 39.8482 32.3407 39.5105C32.2635 39.4074 32.1662 39.3248 32.056 39.2686C31.9459 39.2124 31.8256 39.1841 31.7042 39.1858C31.4982 39.1697 31.2936 39.2346 31.1271 39.3687C30.9606 39.5029 30.8428 39.6977 30.7949 39.9184C30.7949 40.0599 30.6812 40.1682 30.5827 40.1598L29.4991 40.0683C29.472 40.0633 29.4461 40.0523 29.423 40.0361C29.3998 40.0199 29.3799 39.9988 29.3643 39.9739C29.3488 39.9491 29.3379 39.921 29.3324 39.8914C29.327 39.8619 29.3269 39.8314 29.3324 39.8019C29.5825 38.345 30.7873 37.9038 31.8633 37.9038C32.4803 37.8787 33.0852 38.0972 33.5682 38.5198C34.1138 39.0859 34.0607 39.8435 34.0607 40.6593V42.5991C34.0643 43.0289 34.2191 43.4406 34.4927 43.7479C34.5311 43.7914 34.5526 43.8496 34.5526 43.9102C34.5526 43.9709 34.5311 44.0291 34.4927 44.0726L33.6213 44.9051L33.6137 44.8968ZM32.4771 41.8665C32.5178 42.3207 32.4444 42.7785 32.2649 43.1901C32.1943 43.3487 32.0872 43.4843 31.9543 43.5836C31.8215 43.6829 31.6673 43.7424 31.5071 43.7562C31.0676 43.7562 30.8176 43.3899 30.8176 42.8488C30.8176 41.7915 31.6814 41.6001 32.4998 41.6001V41.8665H32.4771ZM18.7921 44.8968C18.7524 44.9241 18.7064 44.9386 18.6595 44.9386C18.6126 44.9386 18.5667 44.9241 18.5269 44.8968C18.2693 44.6608 18.049 44.3795 17.8753 44.0643C17.6503 44.3645 17.3646 44.6029 17.041 44.7604C16.7174 44.918 16.3648 44.9903 16.0112 44.9717C15.7839 44.9819 15.5572 44.939 15.3462 44.8458C15.1351 44.7526 14.9444 44.6112 14.7868 44.431C14.6292 44.2508 14.5083 44.0358 14.432 43.8004C14.3556 43.5649 14.3257 43.3144 14.3441 43.0653C14.3311 42.6318 14.4397 42.2044 14.6553 41.8411C14.8708 41.4777 15.1828 41.1959 15.549 41.034C16.2372 40.784 16.9539 40.641 17.6782 40.6094C17.7124 40.2465 17.6629 39.8801 17.5343 39.5438C17.4606 39.4385 17.3651 39.354 17.2557 39.2976C17.1463 39.2411 17.0261 39.2142 16.9053 39.2191C16.699 39.2013 16.4938 39.2655 16.3269 39.3999C16.16 39.5344 16.0426 39.7302 15.996 39.9517C15.996 40.0932 15.8824 40.2015 15.7839 40.1931L14.7003 40.0683C14.6732 40.0633 14.6473 40.0523 14.6242 40.0361C14.601 40.0199 14.5811 39.9988 14.5655 39.9739C14.5499 39.9491 14.5391 39.921 14.5336 39.8914C14.5281 39.8619 14.5281 39.8314 14.5336 39.8019C14.7836 38.345 15.9885 37.9038 17.0645 37.9038C17.6793 37.8777 18.2821 38.0965 18.7618 38.5198C19.315 39.0859 19.2619 39.8435 19.2619 40.6593V42.5991C19.2584 43.0211 19.3959 43.4299 19.6484 43.7479C19.6683 43.7689 19.6842 43.7941 19.695 43.822C19.7059 43.8499 19.7115 43.8799 19.7115 43.9102C19.7115 43.9406 19.7059 43.9706 19.695 43.9985C19.6842 44.0264 19.6683 44.0516 19.6484 44.0726L18.777 44.9051L18.7921 44.8968ZM17.6555 41.8665C17.6962 42.3207 17.6228 42.7785 17.4433 43.1901C17.3721 43.3482 17.2649 43.4834 17.1322 43.5826C16.9994 43.6817 16.8456 43.7416 16.6856 43.7562C16.2537 43.7562 16.0036 43.3899 16.0036 42.8488C16.0036 41.7915 16.8675 41.6001 17.6858 41.6001V41.8665H17.6555ZM22.0959 41.3087C22.0959 40.5678 22.0959 39.5521 22.8537 39.5521C23.6114 39.5521 23.5432 40.5927 23.5432 41.3087V44.6886C23.5432 44.7468 23.5637 44.8028 23.6004 44.8447C23.6372 44.8866 23.6873 44.9113 23.7402 44.9134H24.8693C24.8971 44.9145 24.9249 44.9096 24.9511 44.8989C24.9772 44.8882 25.0011 44.8719 25.0216 44.8511C25.042 44.8302 25.0584 44.8051 25.07 44.7772C25.0816 44.7494 25.088 44.7193 25.089 44.6886V41.3087C25.0661 40.8972 25.1019 40.4843 25.1951 40.0849C25.2493 39.9352 25.3418 39.8059 25.4615 39.7128C25.5812 39.6197 25.7229 39.5668 25.8695 39.5604C26.0242 39.5366 26.1811 39.5811 26.3061 39.684C26.431 39.787 26.5138 39.9401 26.5363 40.1099C26.563 40.5089 26.563 40.9096 26.5363 41.3087V44.6886C26.5382 44.7476 26.5604 44.8036 26.5983 44.8453C26.6363 44.887 26.6872 44.9113 26.7409 44.9134H27.8699C27.8978 44.9145 27.9256 44.9096 27.9517 44.8989C27.9779 44.8882 28.0018 44.8719 28.0222 44.8511C28.0426 44.8302 28.0591 44.8051 28.0707 44.7772C28.0823 44.7494 28.0887 44.7193 28.0897 44.6886V40.6593C28.1846 39.9766 28.084 39.2784 27.8018 38.6613C27.6501 38.4401 27.4529 38.2615 27.2264 38.14C26.9999 38.0184 26.7505 37.9575 26.4984 37.962C26.1567 37.9512 25.8207 38.0598 25.5388 38.2723C25.2569 38.4847 25.0437 38.79 24.9299 39.1442C24.835 38.8001 24.6412 38.4989 24.3776 38.2859C24.114 38.0728 23.7947 37.9592 23.4674 37.962C23.1312 37.9462 22.7998 38.0539 22.5254 38.2679C22.251 38.4819 22.0492 38.7902 21.9519 39.1442V38.3117C21.95 38.2513 21.9268 38.1941 21.8872 38.1522C21.8476 38.1103 21.7947 38.0869 21.7398 38.0869H20.7623C20.7348 38.0858 20.7074 38.0908 20.6817 38.1016C20.6559 38.1124 20.6325 38.1287 20.6127 38.1497C20.5929 38.1707 20.5771 38.1959 20.5664 38.2237C20.5556 38.2515 20.5501 38.2814 20.5501 38.3117V44.6637C20.549 44.6946 20.5538 44.7254 20.5641 44.7542C20.5744 44.783 20.59 44.8092 20.6099 44.8311C20.6298 44.853 20.6536 44.8701 20.6798 44.8814C20.7061 44.8927 20.7341 44.8979 20.7623 44.8968H21.9216C21.9491 44.8968 21.9764 44.8907 22.0017 44.8789C22.027 44.8671 22.0499 44.8498 22.069 44.828C22.0881 44.8062 22.1031 44.7805 22.1129 44.7522C22.1227 44.724 22.1272 44.6939 22.1262 44.6637V41.3337L22.0959 41.3087ZM47.7608 44.6803C47.7619 44.7112 47.7571 44.7421 47.7468 44.7709C47.7366 44.7997 47.721 44.8259 47.7011 44.8477C47.6811 44.8696 47.6573 44.8867 47.6311 44.898C47.6049 44.9094 47.5768 44.9146 47.5487 44.9134H46.4196C46.3633 44.9134 46.3094 44.8889 46.2696 44.8451C46.2298 44.8014 46.2074 44.7421 46.2074 44.6803V38.3283C46.2094 38.268 46.2326 38.2108 46.2722 38.1689C46.3118 38.1269 46.3646 38.1035 46.4196 38.1036H47.4653C47.5138 38.1003 47.5618 38.1161 47.6007 38.1481C47.6395 38.1801 47.6668 38.2263 47.6775 38.2784V39.2524C47.756 38.8784 47.9497 38.5456 48.2259 38.3104C48.502 38.0753 48.8437 37.9522 49.193 37.962C49.4535 37.9531 49.7117 38.0181 49.9427 38.1508C50.1736 38.2835 50.3695 38.4794 50.5115 38.7196C50.7602 39.3422 50.8619 40.0237 50.807 40.701V44.7136C50.8013 44.7703 50.7762 44.8224 50.7368 44.8595C50.6974 44.8966 50.6466 44.9159 50.5948 44.9134H49.5037C49.4544 44.9117 49.4074 44.8906 49.3712 44.8539C49.335 44.8172 49.3121 44.7674 49.3066 44.7136V40.8591C49.3066 39.5688 48.852 39.5355 48.5943 39.5355C48.4543 39.5443 48.3192 39.5956 48.2041 39.6838C48.0891 39.772 47.9986 39.8936 47.9427 40.035C47.8028 40.4209 47.7407 40.8356 47.7608 41.2504V44.6803Z" fill="black"/>
<path id="Vector_3" d="M3.73567 44.897L3.64474 44.2476C3.3785 44.5019 3.07316 44.7021 2.74302 44.8387C2.43242 44.9775 2.10083 45.051 1.76553 45.0552C1.53085 45.069 1.29603 45.0312 1.07483 44.944C0.853631 44.8568 0.650504 44.7219 0.477356 44.5473C0.313402 44.3738 0.185264 44.1635 0.101601 43.9309C0.0179389 43.6982 -0.0193009 43.4485 -0.00760315 43.1987C-0.0171524 42.9223 0.0311717 42.6473 0.133644 42.3947C0.236115 42.1421 0.39 41.9188 0.583441 41.7418C1.03673 41.3619 1.59767 41.1702 2.16713 41.2007C2.65075 41.2086 3.13168 41.2813 3.59928 41.4171V40.5846C3.61633 40.4137 3.60015 40.2406 3.55182 40.077C3.50349 39.9134 3.42411 39.763 3.31891 39.6356C3.04353 39.4218 2.70725 39.3243 2.37173 39.3609C1.69239 39.3703 1.0191 39.5025 0.378848 39.7521V38.8863C0.694084 38.711 1.03111 38.5875 1.37908 38.52C1.7703 38.43 2.16904 38.3854 2.56874 38.3868C3.13327 38.3354 3.69571 38.5098 4.15243 38.878C4.33297 39.0711 4.4727 39.3054 4.56173 39.5643C4.65077 39.8232 4.68695 40.1005 4.6677 40.3765V44.897H3.73567ZM2.03074 44.1228C2.60253 44.0989 3.1523 43.8742 3.59928 43.4817V42.2163C3.2054 42.1068 2.80076 42.0509 2.39446 42.0498C1.54578 42.0498 1.11386 42.4161 1.11386 43.1321C1.10619 43.266 1.12376 43.4001 1.16549 43.5262C1.20721 43.6523 1.27219 43.7675 1.35634 43.8647C1.44871 43.9553 1.55659 44.0248 1.67368 44.0691C1.79078 44.1135 1.91474 44.1317 2.03832 44.1228H2.03074ZM10.2371 44.897V40.6679C10.2631 40.3207 10.1743 39.9749 9.98709 39.6939C9.88927 39.5843 9.77061 39.4999 9.63961 39.4466C9.50861 39.3934 9.36851 39.3726 9.22934 39.3858C8.59855 39.3962 7.98551 39.6169 7.47137 40.0185V44.897H6.34233V38.57H7.28193L7.39559 39.2693C8.04375 38.7072 8.84314 38.3969 9.66884 38.3868C9.89742 38.3685 10.127 38.4018 10.3434 38.4849C10.5597 38.568 10.7583 38.6989 10.9267 38.8697C11.0828 39.0607 11.2016 39.2849 11.2759 39.5282C11.3502 39.7716 11.3783 40.0291 11.3586 40.2849V44.9303L10.2371 44.897ZM58.1495 44.6556C57.6792 44.9125 57.1593 45.041 56.634 45.0302C56.2589 45.0572 55.8828 44.997 55.5303 44.8535C55.1778 44.7101 54.8568 44.4866 54.5881 44.1977C54.1192 43.4871 53.8667 42.632 53.8667 41.7543C53.8667 40.8766 54.1192 40.0215 54.5881 39.3109C54.8602 39.02 55.1851 38.7955 55.5416 38.6521C55.898 38.5086 56.2781 38.4494 56.6568 38.4784C57.152 38.4753 57.6415 38.5948 58.0889 38.8281V39.7105C57.684 39.5546 57.2599 39.4676 56.8311 39.4524C56.5809 39.4263 56.3286 39.4605 56.0918 39.5525C55.8549 39.6445 55.6391 39.7922 55.4595 39.9852C55.1448 40.4681 54.9971 41.0584 55.0428 41.6502V41.8084C54.9993 42.4012 55.1497 42.9916 55.4671 43.4734C55.6418 43.6643 55.8524 43.8109 56.0841 43.9029C56.3157 43.9949 56.5629 44.0302 56.8083 44.0062C57.2643 43.9973 57.7164 43.9131 58.1495 43.7565V44.6556ZM61.6807 45.0801C61.3053 45.1036 60.9298 45.0368 60.5803 44.8844C60.2309 44.732 59.916 44.4976 59.6575 44.1977C59.1798 43.4833 58.9222 42.6199 58.9222 41.7335C58.9222 40.847 59.1798 39.9837 59.6575 39.2693C60.2033 38.7026 60.9258 38.3868 61.6769 38.3868C62.4279 38.3868 63.1504 38.7026 63.6963 39.2693C64.1739 39.9837 64.4315 40.847 64.4315 41.7335C64.4315 42.6199 64.1739 43.4833 63.6963 44.1977C63.4392 44.4974 63.1256 44.7318 62.7774 44.8842C62.4292 45.0366 62.0549 45.1035 61.6807 45.0801ZM61.6807 44.0811C62.7415 44.0811 63.2795 43.2986 63.2795 41.7252C63.2795 40.1517 62.7415 39.3858 61.6807 39.3858C60.6198 39.3858 60.0818 40.1601 60.0818 41.7252C60.0818 43.2903 60.6122 44.0811 61.6807 44.0811ZM73.1605 44.897V40.6013C73.1832 40.2787 73.1087 39.9569 72.9484 39.6855C72.8638 39.5807 72.7581 39.4989 72.6397 39.4469C72.5213 39.3949 72.3935 39.374 72.2664 39.3858C71.6743 39.3977 71.097 39.5909 70.5993 39.9436C70.6033 40.0074 70.6033 40.0713 70.5993 40.1351V44.897H69.4779V40.6013C69.4973 40.279 69.423 39.9584 69.2657 39.6855C69.1812 39.5807 69.0754 39.4989 68.957 39.4469C68.8386 39.3949 68.7108 39.374 68.5837 39.3858C67.9941 39.3905 67.4181 39.5812 66.9243 39.9353V44.9303H65.8028V38.6033H66.7424L66.8561 39.2443C67.4701 38.7369 68.2101 38.4465 68.9778 38.4118C69.2689 38.3747 69.5633 38.4371 69.821 38.5905C70.0786 38.744 70.2869 38.981 70.4175 39.2693C71.0676 38.711 71.8657 38.4012 72.6907 38.3868C72.9111 38.37 73.1323 38.4044 73.3399 38.4875C73.5474 38.5707 73.7367 38.7009 73.8955 38.8697C74.1893 39.2669 74.3282 39.7756 74.282 40.2849V44.9303L73.1605 44.897ZM75.9415 47.4611V38.57H76.8811L76.9872 39.2193C77.5076 38.6859 78.1925 38.3885 78.9043 38.3868C79.2326 38.3665 79.5608 38.4313 79.8622 38.5759C80.1636 38.7205 80.4299 38.9409 80.6395 39.2193C81.0934 39.9128 81.318 40.7558 81.276 41.6086C81.3244 42.5022 81.0857 43.3861 80.6016 44.1061C80.3927 44.4042 80.1223 44.6435 79.8127 44.8041C79.5031 44.9648 79.1631 45.0423 78.8209 45.0302C78.1708 45.0448 77.5407 44.7822 77.0629 44.2976V47.4611H75.9415ZM78.586 39.3858C78.0376 39.3924 77.5059 39.594 77.0705 39.9603V43.4318C77.502 43.8092 78.0346 44.0199 78.586 44.0312C79.6317 44.0312 80.147 43.257 80.147 41.7168C80.1915 41.1021 80.059 40.4876 79.7681 39.9603C79.6315 39.7623 79.4514 39.6057 79.2446 39.5052C79.0378 39.4047 78.8112 39.3636 78.586 39.3858ZM86.0422 44.897L85.9513 44.2476C85.6851 44.5019 85.3797 44.7021 85.0496 44.8387C84.7363 44.9774 84.4023 45.0508 84.0645 45.0552C83.8299 45.068 83.5953 45.0298 83.3743 44.9426C83.1532 44.8555 82.95 44.7211 82.7764 44.5473C82.6149 44.3721 82.489 44.1613 82.4068 43.929C82.3245 43.6966 82.2878 43.4477 82.299 43.1987C82.2885 42.923 82.3357 42.6484 82.4368 42.3959C82.5379 42.1433 82.6904 41.9196 82.8824 41.7418C83.3381 41.3607 83.9018 41.169 84.4737 41.2007C84.9573 41.2086 85.4383 41.2813 85.9059 41.4171V40.5846C85.921 40.4138 85.9039 40.2413 85.8557 40.078C85.8075 39.9147 85.7291 39.7641 85.6255 39.6356C85.3501 39.4218 85.0138 39.3243 84.6783 39.3609C83.9964 39.3695 83.3205 39.5017 82.6778 39.7521V38.8863C82.9931 38.711 83.3301 38.5875 83.6781 38.52C84.0694 38.4305 84.4681 38.3858 84.8677 38.3868C85.4345 38.3371 85.9988 38.5113 86.459 38.878C86.6382 39.0718 86.7765 39.3065 86.8642 39.5654C86.9519 39.8243 86.9869 40.1012 86.9667 40.3765V44.897H86.0422ZM84.3373 44.1228C84.9091 44.0989 85.4589 43.8742 85.9059 43.4817V42.2163C85.512 42.1068 85.1073 42.0509 84.701 42.0498C83.8448 42.0498 83.4204 42.4161 83.4204 43.1321C83.4118 43.2654 83.4281 43.3992 83.4685 43.5252C83.5089 43.6513 83.5725 43.7668 83.6553 43.8647C83.8432 44.0454 84.088 44.138 84.3373 44.1228ZM92.5286 44.897V40.6679C92.5527 40.3222 92.467 39.9779 92.2861 39.6939C92.1883 39.5843 92.0696 39.4999 91.9386 39.4466C91.8076 39.3934 91.6675 39.3726 91.5283 39.3858C90.8975 39.3962 90.2845 39.6169 89.7704 40.0185V44.897H88.6489V38.57H89.5885L89.7022 39.2693C90.35 38.7066 91.1496 38.3962 91.9754 38.3868C92.2052 38.3683 92.4359 38.4016 92.6535 38.4846C92.8712 38.5676 93.071 38.6987 93.2408 38.8697C93.5427 39.2508 93.6952 39.7475 93.6652 40.2516V44.897H92.5286ZM99.9697 38.57L97.3478 46.0042C97.2094 46.4747 96.9643 46.8987 96.6356 47.2363C96.3363 47.495 95.9628 47.6279 95.5823 47.6109C95.282 47.6132 94.9839 47.5539 94.7033 47.4361V46.5537C94.9139 46.6115 95.1303 46.6394 95.3474 46.6369C95.5882 46.6523 95.8257 46.5693 96.0142 46.4038C96.2185 46.1697 96.3669 45.8837 96.4461 45.5713L96.6659 44.9386L94.3472 38.5533H95.552L97.2115 43.7315L98.8103 38.5533H99.9697V38.57ZM22.5202 13.0039H3.26587V12.8873C3.3341 12.1434 3.49209 11.4127 3.73567 10.7145C4.55012 8.1064 6.17983 5.9 8.3352 4.4874C9.79288 3.58089 11.4501 3.13434 13.1242 3.19702C14.3834 3.18993 15.6317 3.45292 16.7992 3.97125C17.9091 4.45559 18.9248 5.16756 19.7923 6.06915C20.6274 6.94233 21.3037 7.982 21.7852 9.13276C22.2868 10.3046 22.5456 11.5841 22.543 12.879L22.5202 13.0039ZM13.2984 0.000221668C11.4614 -0.0265575 9.63945 0.367545 7.94875 1.1574C6.36308 1.91976 4.93102 3.02053 3.73567 4.39582C2.53353 5.79287 1.59371 7.43645 0.969892 9.23266C0.31022 11.176 -0.0185535 13.236 -2.54959e-05 15.3099C-0.0239604 17.4371 0.299409 19.5518 0.954737 21.5537C1.55293 23.3641 2.48118 25.0213 3.68263 26.4238C4.88259 27.8034 6.3336 28.8898 7.94117 29.6123C9.69764 30.3928 11.5782 30.7806 13.4727 30.7528C15.7241 30.7795 17.9552 30.2831 20.0197 29.2959C22.0378 28.2717 23.7489 26.6373 24.9526 24.584L22.5657 22.3778C21.6401 23.9874 20.3294 25.2863 18.777 26.1324C17.167 27.0549 15.3794 27.5402 13.5637 27.5477C11.7966 27.626 10.0429 27.1803 8.48675 26.2573C7.25805 25.4734 6.19002 24.4191 5.34967 23.1604C4.60732 22.0522 4.05993 20.8014 3.73567 19.4724C3.47424 18.4553 3.32665 17.4069 3.29618 16.3505V16.234H25.7861V13.6449C25.7749 11.9393 25.4928 10.249 24.9526 8.6499C24.4231 7.02895 23.6125 5.5362 22.5657 4.2543C21.4769 2.94372 20.157 1.89007 18.686 1.1574C16.9869 0.349257 15.1496 -0.0482189 13.2984 -0.00810353V0.000221668ZM52.2315 13.0039H32.9847V12.8873C33.053 12.1434 33.211 11.4127 33.4545 10.7145C33.8232 9.54468 34.3577 8.44614 35.0382 7.45943C35.8638 6.2646 36.8933 5.25795 38.0692 4.49573C39.5259 3.58636 41.1839 3.13961 42.8582 3.20535C44.1149 3.19827 45.3608 3.46128 46.5257 3.97957C47.6499 4.45716 48.6792 5.1696 49.5567 6.07748C50.366 6.95661 51.0165 7.99611 51.4738 9.14108C51.9718 10.3143 52.2304 11.5928 52.2315 12.8873V13.0039ZM43.0173 0.000221668C41.1778 -0.0264974 39.3534 0.367579 37.66 1.1574C36.08 1.91843 34.6532 3.01633 33.4621 4.3875C32.2574 5.78238 31.3173 7.42655 30.6963 9.22433C30.0296 11.1686 29.6981 13.2323 29.7188 15.3099C29.6962 17.4363 30.0169 19.5503 30.666 21.5537C31.2693 23.3632 32.1999 25.0199 33.4015 26.4238C34.6015 27.8034 36.0525 28.8898 37.66 29.6123C39.4163 30.3935 41.297 30.7812 43.1916 30.7528C45.443 30.7795 47.6741 30.2831 49.7385 29.2959C51.7518 28.2702 53.4576 26.6358 54.6563 24.584L52.2694 22.3778C51.3362 23.9957 50.0111 25.2959 48.4428 26.1324C46.8329 27.0549 45.0452 27.5402 43.2295 27.5477C41.4624 27.626 39.7088 27.1803 38.1526 26.2573C36.9239 25.4734 35.8559 24.4191 35.0155 23.1604C34.2782 22.0522 33.7383 20.8009 33.4242 19.4724C33.1628 18.4553 33.0152 17.4069 32.9847 16.3505V16.234H55.505V13.6449C55.4997 11.9417 55.228 10.2521 54.7018 8.6499C54.1723 7.02895 53.3617 5.5362 52.3149 4.2543C51.2269 2.94635 49.91 1.89303 48.4428 1.1574C46.7432 0.350994 44.9062 -0.046407 43.0552 -0.00810353L43.0173 0.000221668ZM85.1481 27.5477C83.618 27.5697 82.1004 27.2408 80.6925 26.582C79.4103 25.9702 78.2533 25.0812 77.2903 23.9679C76.3448 22.8546 75.6175 21.5398 75.1534 20.1051C74.1737 17.0446 74.1737 13.7084 75.1534 10.6479C75.6193 9.21164 76.3463 7.89454 77.2903 6.77678C78.2537 5.66614 79.4108 4.77996 80.6925 4.17105C83.5473 2.8832 86.7489 2.8832 89.6037 4.17105C90.887 4.76817 92.043 5.65248 92.998 6.76762C93.953 7.88276 94.686 9.20427 95.1504 10.6479C96.1301 13.7084 96.1301 17.0446 95.1504 20.1051C94.6825 21.5397 93.9527 22.8542 93.006 23.9679C92.0443 25.083 90.8869 25.9722 89.6037 26.582C88.196 27.2415 86.6783 27.5704 85.1481 27.5477ZM85.1481 0.000221668C83.2189 -0.0130198 81.3052 0.37978 79.5105 1.1574C77.8457 1.86689 76.3353 2.95324 75.0776 4.34588C73.8342 5.74416 72.8555 7.39946 72.1982 9.21601C71.4998 11.1781 71.1525 13.2699 71.1752 15.3765C71.1554 17.4899 71.5079 19.5875 72.2133 21.5537C72.8707 23.3702 73.8494 25.0255 75.0928 26.4238C76.35 27.8092 77.8539 28.8946 79.5105 29.6123C81.3086 30.3853 83.2249 30.7724 85.1557 30.7528C87.0793 30.7746 88.9885 30.3873 90.7782 29.6123C92.4399 28.8945 93.9493 27.8086 95.2125 26.4222C96.4757 25.0358 97.4657 23.3786 98.1208 21.5537C99.5048 17.5759 99.5048 13.1771 98.1208 9.19936C97.4582 7.37784 96.4687 5.72154 95.211 4.32923C93.9418 2.95231 92.4311 1.87319 90.7706 1.1574C88.9809 0.38236 87.0717 -0.00493314 85.1481 0.0168705V0.000221668ZM59.4074 29.9869H62.6733V14.0362C62.6642 12.6529 62.8403 11.2756 63.1961 9.94861C63.5274 8.73011 64.0789 7.59753 64.8177 6.6186C65.5675 5.64674 66.515 4.88243 67.5835 4.3875C68.804 3.8237 70.1166 3.54038 71.4404 3.555V0.224996C67.6517 0.308246 64.6586 1.5903 62.5899 4.0212C59.1877 8.00888 59.4074 13.8031 59.4074 13.8614V29.9869Z" fill="black"/>
</g>
<defs>
<clipPath id="clip0_0_21">
<rect width="100" height="50" fill="white"/>
</clipPath>
</defs>
</svg>
