<svg width="16" height="17" viewBox="0 0 16 17" fill="none" xmlns="http://www.w3.org/2000/svg">
<g id="Icon/Social/Instagram Copy">
<path id="Shape" fill-rule="evenodd" clip-rule="evenodd" d="M13.456 3.07143C14.415 3.12543 14.886 3.26743 15.32 4.03943C15.772 4.81043 16 6.13843 16 8.47743V8.48043V8.48543C16 10.8134 15.772 12.1514 15.321 12.9144C14.887 13.6864 14.416 13.8264 13.457 13.8914C12.498 13.9464 10.089 13.9794 8.002 13.9794C5.911 13.9794 3.501 13.9464 2.543 13.8904C1.586 13.8254 1.115 13.6854 0.677 12.9134C0.23 12.1504 0 10.8124 0 8.48443V8.48243V8.47943V8.47643C0 6.13843 0.23 4.81043 0.677 4.03943C1.115 3.26643 1.587 3.12543 2.544 3.07043C3.501 3.00643 5.911 2.97943 8.002 2.97943C10.089 2.97943 12.498 3.00643 13.456 3.07143ZM11 8.47943L6 5.47943V11.4794L11 8.47943Z" fill="#B0B8BC"/>
</g>
</svg>
