<svg width="214" height="37" viewBox="0 0 214 37" fill="none" xmlns="http://www.w3.org/2000/svg">
<path id="Vector" d="M14.5859 14.1172C16.9557 14.2995 18.889 14.7422 20.387 15.4453C21.897 16.1354 22.984 16.9883 23.648 18.0039C24.325 19.0065 24.664 20.0872 24.664 21.2461C24.664 22.8997 24.221 24.3125 23.336 25.4844C22.45 26.6432 21.181 27.5221 19.527 28.1211C17.874 28.707 15.9075 29 13.6289 29C13.056 29 12.0729 28.9805 10.6797 28.9414C9.29939 28.9023 7.90619 28.8828 6.49999 28.8828C3.75259 28.8828 1.7018 28.9219 0.347595 29V28.1992C1.233 28.1602 1.87759 28.056 2.28119 27.8867C2.68489 27.7174 2.95829 27.4049 3.10149 26.9492C3.25779 26.4935 3.33589 25.7643 3.33589 24.7617V4.91799C3.33589 3.91539 3.25779 3.18619 3.10149 2.73049C2.95829 2.27469 2.68489 1.96219 2.28119 1.79299C1.87759 1.62369 1.233 1.51949 0.347595 1.48049V0.679688C1.6888 0.757788 3.71349 0.796886 6.42179 0.796886C7.48959 0.796886 8.67439 0.783886 9.97649 0.757786C11.2786 0.731786 12.1836 0.718786 12.6914 0.718786C14.8398 0.718786 16.6497 0.985687 18.121 1.51949C19.605 2.04039 20.719 2.77599 21.461 3.72659C22.203 4.66409 22.574 5.75779 22.574 7.00779C22.574 7.99739 22.288 8.96739 21.715 9.91799C21.142 10.8685 20.25 11.7148 19.039 12.457C17.841 13.1862 16.3567 13.7135 14.5859 14.0391V14.1172ZM11.4218 13.9609C13.1536 13.9609 14.3646 13.3685 15.0547 12.1836C15.7578 10.9987 16.1093 9.41669 16.1093 7.43749C16.1093 5.43229 15.7968 3.94139 15.1718 2.96479C14.5468 1.97529 13.5508 1.48049 12.1836 1.48049C11.4674 1.48049 10.9336 1.57809 10.582 1.77339C10.2435 1.95569 10.0091 2.28779 9.87889 2.76949C9.76169 3.23829 9.70309 3.95439 9.70309 4.91799V13.9609H11.4218ZM9.70309 24.7617C9.70309 25.7253 9.76819 26.4349 9.89839 26.8906C10.0416 27.3464 10.3021 27.6589 10.6797 27.8281C11.0573 27.9974 11.6497 28.082 12.457 28.082C16.1679 28.082 18.023 25.7448 18.023 21.0703C18.023 18.974 17.49 17.3789 16.4218 16.2852C15.3672 15.1914 13.6875 14.6445 11.3828 14.6445H9.70309V24.7617ZM34.234 16.6367C34.194 17.0273 34.175 17.6523 34.175 18.5117C34.175 20.2826 34.422 21.7539 34.917 22.9258C35.412 24.0846 36.05 24.9375 36.831 25.4844C37.625 26.0182 38.472 26.2852 39.37 26.2852C41.571 26.2852 43.335 25.2174 44.663 23.082L45.366 23.3164C45.028 24.4102 44.5 25.4323 43.784 26.3828C43.081 27.3203 42.183 28.0885 41.089 28.6875C40.008 29.2734 38.771 29.5664 37.378 29.5664C35.542 29.5664 33.928 29.1758 32.534 28.3945C31.154 27.6133 30.073 26.4284 29.292 24.8398C28.524 23.2383 28.14 21.2526 28.14 18.8828C28.14 16.4609 28.556 14.4232 29.39 12.7695C30.223 11.1029 31.375 9.85289 32.847 9.01949C34.318 8.18619 36.017 7.76949 37.944 7.76949C42.958 7.76949 45.464 10.7253 45.464 16.6367H34.234ZM40.425 15.875C40.464 13.7917 40.249 12.0599 39.78 10.6797C39.325 9.29949 38.628 8.60939 37.691 8.60939C36.74 8.60939 35.946 9.20179 35.308 10.3867C34.683 11.5586 34.299 13.388 34.155 15.875H40.425ZM59.643 12.125C59.643 11.0182 59.376 10.1458 58.842 9.50779C58.321 8.86979 57.501 8.55079 56.381 8.55079C55.86 8.55079 55.34 8.63539 54.819 8.80469C54.298 8.96089 53.868 9.20179 53.53 9.52729C54.272 9.77469 54.851 10.1654 55.268 10.6992C55.685 11.2201 55.893 11.8776 55.893 12.6719C55.893 13.2188 55.756 13.7135 55.483 14.1562C55.222 14.5859 54.845 14.931 54.35 15.1914C53.855 15.4388 53.289 15.5625 52.651 15.5625C51.791 15.5625 51.101 15.2695 50.58 14.6836C50.073 14.0977 49.819 13.362 49.819 12.4766C49.819 11.0964 50.561 9.97659 52.045 9.11719C53.673 8.21879 55.704 7.76949 58.139 7.76949C60.873 7.76949 62.82 8.36849 63.979 9.56639C64.539 10.1263 64.916 10.8229 65.112 11.6562C65.307 12.4896 65.405 13.6549 65.405 15.1523V26.0312C65.405 26.6823 65.463 27.1445 65.58 27.418C65.711 27.6784 65.932 27.8086 66.244 27.8086C66.674 27.8086 67.169 27.5807 67.729 27.125L68.139 27.8086C67.527 28.3164 66.863 28.6875 66.147 28.9219C65.431 29.1562 64.571 29.2734 63.569 29.2734C62.215 29.2734 61.238 28.974 60.639 28.375C60.04 27.776 59.741 26.9948 59.741 26.0312C59.09 27.112 58.237 27.9258 57.182 28.4727C56.127 29.0065 55.001 29.2734 53.803 29.2734C52.28 29.2734 51.056 28.8763 50.131 28.082C49.22 27.2747 48.764 26.1549 48.764 24.7227C48.764 23.3294 49.22 22.1771 50.131 21.2656C51.043 20.3542 52.455 19.5469 54.369 18.8438C54.578 18.7656 55.255 18.5117 56.401 18.082C57.547 17.6393 58.373 17.1901 58.881 16.7344C59.389 16.2786 59.643 15.7773 59.643 15.2305V12.125ZM59.643 16.8711C59.474 17.1576 59.194 17.457 58.803 17.7695C58.425 18.069 57.879 18.4401 57.162 18.8828C56.316 19.4688 55.652 20.1328 55.17 20.875C54.689 21.6042 54.448 22.5156 54.448 23.6094C54.448 24.651 54.675 25.4323 55.131 25.9531C55.587 26.4609 56.186 26.7148 56.928 26.7148C57.983 26.7148 58.888 26.168 59.643 25.0742V16.8711ZM90.033 24.6445C90.033 25.8815 90.222 26.7799 90.599 27.3398C90.99 27.8867 91.654 28.1602 92.591 28.1602V29C91.758 28.9219 90.931 28.8828 90.111 28.8828C87.767 28.8828 85.821 29.0716 84.271 29.4492V25.8359C83.06 28.3229 80.912 29.5664 77.826 29.5664C75.834 29.5664 74.382 29.0456 73.47 28.0039C73.028 27.5091 72.709 26.8516 72.513 26.0312C72.331 25.2109 72.24 24.1367 72.24 22.8086V12.6719C72.24 11.4479 72.045 10.556 71.654 9.99609C71.276 9.43619 70.619 9.15619 69.681 9.15619V8.31639C70.528 8.39449 71.354 8.43359 72.162 8.43359C74.492 8.43359 76.439 8.25129 78.002 7.88669V24.4492C78.002 25.556 78.164 26.3958 78.49 26.9688C78.828 27.5286 79.46 27.8086 80.384 27.8086C81.087 27.8086 81.732 27.6068 82.318 27.2031C82.917 26.7865 83.392 26.2266 83.744 25.5234C84.095 24.8073 84.271 24.0195 84.271 23.1602V12.6719C84.271 11.4479 84.076 10.556 83.685 9.99609C83.308 9.43619 82.65 9.15619 81.712 9.15619V8.31639C82.559 8.39449 83.386 8.43359 84.193 8.43359C86.524 8.43359 88.47 8.25129 90.033 7.88669V24.6445ZM108.04 8.35549V9.15619H103.313V25.2891C103.313 26.0833 103.456 26.6497 103.743 26.9883C104.029 27.3138 104.472 27.4766 105.071 27.4766C106.204 27.4766 107.109 26.6758 107.786 25.0742L108.469 25.4453C107.467 28.1927 105.644 29.5664 103.001 29.5664C101.243 29.5664 99.908 29.1107 98.997 28.1992C98.437 27.6523 98.053 26.9622 97.844 26.1289C97.649 25.2826 97.552 24.1172 97.552 22.6328V9.15619H94.192V8.35549H97.552V3.04299C99.752 3.04299 101.673 2.61329 103.313 1.75389V8.35549H108.04ZM122.687 8.31639C123.937 8.39449 125.233 8.43359 126.574 8.43359C127.915 8.43359 128.944 8.39449 129.66 8.31639V9.11719C129.1 9.26039 128.592 9.59239 128.137 10.1133C127.694 10.6341 127.277 11.4479 126.887 12.5547L119.738 32.6719C119.204 34.0651 118.618 35.0156 117.98 35.5234C117.199 36.1875 116.034 36.5195 114.484 36.5195C113.794 36.5195 113.111 36.4023 112.434 36.168C111.77 35.9466 111.216 35.5951 110.773 35.1133C110.344 34.6315 110.129 34.0326 110.129 33.3164C110.129 32.4961 110.422 31.8385 111.008 31.3438C111.594 30.849 112.368 30.6016 113.332 30.6016C114.23 30.6016 114.953 30.8229 115.5 31.2656C116.06 31.7083 116.34 32.3268 116.34 33.1211C116.34 33.668 116.158 34.1758 115.793 34.6445C115.441 35.1263 114.953 35.4844 114.328 35.7188C114.523 35.7448 114.829 35.7578 115.246 35.7578C116.913 35.7578 118.13 34.7031 118.898 32.5938L119.543 30.6797L111.047 11.4023C110.63 10.4779 110.214 9.87239 109.797 9.58589C109.393 9.29949 108.983 9.15619 108.566 9.15619V8.31639C110.324 8.47269 112.154 8.55079 114.055 8.55079C115.63 8.55079 117.486 8.47269 119.621 8.31639V9.15619C119.048 9.15619 118.599 9.17579 118.273 9.21479C117.948 9.25389 117.668 9.35159 117.434 9.50779C117.212 9.66409 117.102 9.91799 117.102 10.2695C117.102 10.582 117.193 10.9596 117.375 11.4023L122.277 23.2188L125.012 15.5234C125.441 14.2474 125.656 13.1797 125.656 12.3203C125.656 11.3047 125.396 10.5365 124.875 10.0156C124.354 9.48179 123.625 9.18229 122.687 9.11719V8.31639ZM139.972 11.4805C141.183 9.00649 143.37 7.76949 146.534 7.76949C147.628 7.76949 148.52 7.89969 149.21 8.16019C149.913 8.42059 150.486 8.80469 150.929 9.31249C151.372 9.82029 151.691 10.4779 151.886 11.2852C152.081 12.0924 152.179 13.1732 152.179 14.5273V25.2891C152.179 26.0312 152.264 26.6107 152.433 27.0273C152.602 27.444 152.869 27.737 153.234 27.9062C153.598 28.0755 154.099 28.1602 154.737 28.1602V29C152.081 28.8958 150.323 28.8438 149.464 28.8438C148.644 28.8438 146.905 28.8958 144.249 29V28.1602C144.796 28.1602 145.226 28.0755 145.538 27.9062C145.851 27.737 146.072 27.444 146.202 27.0273C146.346 26.6107 146.417 26.0312 146.417 25.2891V12.8477C146.417 11.7539 146.235 10.9271 145.87 10.3672C145.519 9.80729 144.874 9.52729 143.937 9.52729C143.208 9.52729 142.537 9.72919 141.925 10.1328C141.326 10.5365 140.851 11.0964 140.499 11.8125C140.148 12.5156 139.972 13.2969 139.972 14.1562V25.2891C139.972 26.0312 140.043 26.6107 140.187 27.0273C140.33 27.444 140.558 27.737 140.87 27.9062C141.183 28.0755 141.606 28.1602 142.14 28.1602V29C139.692 28.8958 138.038 28.8438 137.179 28.8438C136.359 28.8438 134.516 28.8958 131.652 29V28.1602C132.29 28.1602 132.791 28.0755 133.155 27.9062C133.533 27.737 133.8 27.444 133.956 27.0273C134.125 26.6107 134.21 26.0312 134.21 25.2891V12.6719C134.21 11.4349 134.021 10.543 133.644 9.99609C133.266 9.43619 132.602 9.15619 131.652 9.15619V8.31639C132.498 8.39449 133.325 8.43359 134.132 8.43359C136.489 8.43359 138.435 8.25129 139.972 7.88669V11.4805ZM163.643 16.6367C163.604 17.0273 163.584 17.6523 163.584 18.5117C163.584 20.2826 163.832 21.7539 164.327 22.9258C164.821 24.0846 165.459 24.9375 166.241 25.4844C167.035 26.0182 167.881 26.2852 168.78 26.2852C170.98 26.2852 172.745 25.2174 174.073 23.082L174.776 23.3164C174.437 24.4102 173.91 25.4323 173.194 26.3828C172.491 27.3203 171.592 28.0885 170.498 28.6875C169.418 29.2734 168.181 29.5664 166.787 29.5664C164.952 29.5664 163.337 29.1758 161.944 28.3945C160.564 27.6133 159.483 26.4284 158.702 24.8398C157.933 23.2383 157.549 21.2526 157.549 18.8828C157.549 16.4609 157.966 14.4232 158.799 12.7695C159.633 11.1029 160.785 9.85289 162.256 9.01949C163.728 8.18619 165.427 7.76949 167.354 7.76949C172.367 7.76949 174.873 10.7253 174.873 16.6367H163.643ZM169.834 15.875C169.873 13.7917 169.659 12.0599 169.19 10.6797C168.734 9.29949 168.037 8.60939 167.1 8.60939C166.149 8.60939 165.355 9.20179 164.717 10.3867C164.092 11.5586 163.708 13.388 163.565 15.875H169.834ZM179.853 21.2852C180.114 23.5898 180.673 25.3932 181.533 26.6953C182.405 27.9974 183.636 28.6484 185.224 28.6484C186.005 28.6484 186.669 28.4141 187.216 27.9453C187.776 27.4635 188.056 26.7474 188.056 25.7969C188.056 25.0547 187.887 24.3906 187.548 23.8047C187.223 23.2188 186.806 22.6979 186.298 22.2422C185.791 21.7865 185.029 21.1615 184.013 20.3672C182.776 19.3646 181.845 18.5768 181.22 18.0039C180.608 17.431 180.081 16.7539 179.638 15.9727C179.196 15.1784 178.974 14.2799 178.974 13.2773C178.974 12.1315 179.287 11.1419 179.912 10.3086C180.537 9.47529 181.377 8.84379 182.431 8.41409C183.486 7.98439 184.632 7.76949 185.869 7.76949C186.884 7.76949 187.815 7.89319 188.662 8.14059C189.508 8.38799 190.172 8.67449 190.654 8.99999C190.914 9.18229 191.149 9.27339 191.357 9.27339C191.852 9.27339 192.164 8.78519 192.294 7.80859H193.173C193.069 9.14969 193.017 11.4935 193.017 14.8398H192.138C191.904 13.0951 191.377 11.6302 190.556 10.4453C189.749 9.24739 188.571 8.64839 187.021 8.64839C186.227 8.64839 185.576 8.87629 185.068 9.33199C184.56 9.78779 184.306 10.4128 184.306 11.207C184.306 12.1055 184.606 12.8802 185.205 13.5312C185.804 14.1823 186.526 14.8073 187.373 15.4062C188.219 16.0052 188.837 16.4544 189.228 16.7539C190.322 17.5742 191.188 18.2904 191.826 18.9023C192.477 19.5143 193.004 20.2109 193.408 20.9922C193.811 21.7604 194.013 22.6458 194.013 23.6484C194.013 24.8203 193.668 25.8555 192.978 26.7539C192.301 27.6523 191.383 28.349 190.224 28.8438C189.065 29.3255 187.796 29.5664 186.416 29.5664C184.996 29.5664 183.759 29.2865 182.705 28.7266C181.91 28.3229 181.285 28.043 180.83 27.8867C180.752 27.8607 180.686 27.8477 180.634 27.8477C180.205 27.8477 179.892 28.3229 179.697 29.2734H178.818C178.922 27.75 178.974 25.0872 178.974 21.2852H179.853ZM199.13 21.2852C199.39 23.5898 199.95 25.3932 200.809 26.6953C201.682 27.9974 202.912 28.6484 204.501 28.6484C205.282 28.6484 205.946 28.4141 206.493 27.9453C207.053 27.4635 207.333 26.7474 207.333 25.7969C207.333 25.0547 207.164 24.3906 206.825 23.8047C206.499 23.2188 206.083 22.6979 205.575 22.2422C205.067 21.7865 204.305 21.1615 203.29 20.3672C202.053 19.3646 201.122 18.5768 200.497 18.0039C199.885 17.431 199.358 16.7539 198.915 15.9727C198.472 15.1784 198.251 14.2799 198.251 13.2773C198.251 12.1315 198.563 11.1419 199.188 10.3086C199.813 9.47529 200.653 8.84379 201.708 8.41409C202.762 7.98439 203.908 7.76949 205.145 7.76949C206.161 7.76949 207.092 7.89319 207.938 8.14059C208.785 8.38799 209.449 8.67449 209.93 8.99999C210.191 9.18229 210.425 9.27339 210.634 9.27339C211.128 9.27339 211.441 8.78519 211.571 7.80859H212.45C212.346 9.14969 212.294 11.4935 212.294 14.8398H211.415C211.18 13.0951 210.653 11.6302 209.833 10.4453C209.025 9.24739 207.847 8.64839 206.298 8.64839C205.503 8.64839 204.852 8.87629 204.344 9.33199C203.837 9.78779 203.583 10.4128 203.583 11.207C203.583 12.1055 203.882 12.8802 204.481 13.5312C205.08 14.1823 205.803 14.8073 206.649 15.4062C207.496 16.0052 208.114 16.4544 208.505 16.7539C209.598 17.5742 210.464 18.2904 211.102 18.9023C211.753 19.5143 212.281 20.2109 212.684 20.9922C213.088 21.7604 213.29 22.6458 213.29 23.6484C213.29 24.8203 212.945 25.8555 212.255 26.7539C211.578 27.6523 210.66 28.349 209.501 28.8438C208.342 29.3255 207.072 29.5664 205.692 29.5664C204.273 29.5664 203.036 29.2865 201.981 28.7266C201.187 28.3229 200.562 28.043 200.106 27.8867C200.028 27.8607 199.963 27.8477 199.911 27.8477C199.481 27.8477 199.169 28.3229 198.973 29.2734H198.094C198.199 27.75 198.251 25.0872 198.251 21.2852H199.13Z" fill="white"/>
</svg>
