<svg width="65" height="65" viewBox="0 0 65 65" fill="none" xmlns="http://www.w3.org/2000/svg">
<g clip-path="url(#clip0_9201_2)">
<path d="M32.5 62.5C49.0685 62.5 62.5 49.0685 62.5 32.5C62.5 15.9315 49.0685 2.5 32.5 2.5C15.9315 2.5 2.5 15.9315 2.5 32.5C2.5 49.0685 15.9315 62.5 32.5 62.5Z" stroke="#5C8692" stroke-width="5"/>
<path d="M48.7815 23.9991C49.0288 26.5687 48.0987 29.1453 46.1959 31.1623L34.8073 43.2691L19.1207 44.7789L17.8004 31.0612L29.2089 18.9687C31.1118 16.9518 33.8316 15.6598 36.7699 15.377L47.0471 15.6231L48.7815 23.9991Z" stroke="#5C8692" stroke-width="5" stroke-linecap="round" stroke-linejoin="round"/>
<path d="M39.394 23.6362L9.84851 53.1817" stroke="#5C8692" stroke-width="5" stroke-linecap="round" stroke-linejoin="round"/>
<path d="M41.3637 35.4546H27.5758" stroke="#5C8692" stroke-width="5" stroke-linecap="round" stroke-linejoin="round"/>
<path d="M39.394 23.6362H25.6061" stroke="#5C8692" stroke-width="5" stroke-linecap="round" stroke-linejoin="round"/>
</g>
<defs>
<clipPath id="clip0_9201_2">
<rect width="65" height="65" fill="white"/>
</clipPath>
</defs>
</svg>
